<?xml version="1.0" standalone="no"?>
<!DOCTYPE svg PUBLIC "-//W3C//DTD SVG 20010904//EN"
 "http://www.w3.org/TR/2001/REC-SVG-20010904/DTD/svg10.dtd">
<svg version="1.0" xmlns="http://www.w3.org/2000/svg"
 width="320.000000pt" height="320.000000pt" viewBox="0 0 320.000000 320.000000"
 preserveAspectRatio="xMidYMid meet">
<metadata>
Created by potrace 1.14, written by Peter Selinger 2001-2017
</metadata>
<g transform="translate(0.000000,320.000000) scale(0.100000,-0.100000)"
fill="#000000" stroke="none">
<path d="M742 2949 c-7 -10 -20 -19 -30 -19 -10 0 -24 -9 -32 -19 -7 -11 -17
-18 -22 -15 -4 3 -8 0 -8 -5 0 -6 -7 -11 -15 -11 -8 0 -15 -8 -15 -17 0 -13
-3 -14 -8 -6 -6 9 -11 8 -22 -6 -7 -11 -19 -17 -27 -14 -8 3 -13 0 -11 -8 2
-9 -4 -13 -15 -11 -9 2 -16 -1 -15 -5 2 -4 -1 -9 -5 -10 -5 -1 -17 -11 -27
-23 -10 -12 -27 -23 -37 -25 -10 -1 -17 -8 -15 -15 1 -6 -2 -9 -7 -6 -5 4 -17
-1 -25 -10 -9 -8 -16 -12 -16 -8 0 4 -8 -2 -17 -13 -10 -11 -24 -18 -32 -15
-8 3 -11 0 -7 -7 4 -6 0 -11 -9 -11 -10 0 -13 -5 -9 -12 4 -6 3 -8 -4 -4 -6 3
-22 -5 -36 -19 -14 -14 -26 -21 -26 -15 0 6 -12 -1 -26 -15 -14 -14 -30 -22
-36 -19 -6 4 -8 2 -4 -4 3 -6 -3 -13 -14 -17 -11 -4 -17 -11 -14 -17 5 -7 2
-8 -5 -3 -7 4 -22 -1 -34 -13 -12 -10 -41 -30 -65 -44 -23 -13 -39 -28 -35
-31 3 -4 1 -7 -5 -7 -9 0 -12 -139 -12 -555 0 -489 2 -554 15 -549 10 4 15 0
15 -11 0 -9 4 -13 10 -10 5 3 10 1 10 -4 0 -6 7 -11 15 -11 8 0 15 -4 15 -10
0 -5 5 -10 11 -10 6 0 17 -7 26 -15 8 -8 18 -13 23 -10 4 3 14 -3 21 -13 13
-16 13 -16 -6 -2 -19 14 -19 14 -6 -2 7 -10 17 -16 21 -13 4 3 19 -5 32 -18
14 -12 32 -23 39 -25 8 -2 16 -8 17 -13 2 -5 10 -9 18 -9 9 0 12 -5 8 -12 -5
-7 -2 -9 8 -6 8 4 21 -2 28 -12 8 -11 17 -17 21 -15 4 3 10 -2 13 -11 4 -9 13
-14 21 -10 8 3 14 0 12 -6 -1 -7 5 -12 13 -13 8 -1 14 -6 13 -12 -2 -7 6 -10
19 -8 11 3 18 2 15 -2 -7 -7 36 -43 52 -43 6 0 11 -5 11 -11 0 -5 5 -7 10 -4
5 3 10 -1 10 -10 0 -9 4 -14 10 -10 5 3 18 -3 29 -14 11 -11 22 -17 25 -13 3
3 6 0 6 -7 0 -7 4 -10 8 -7 5 3 16 -3 25 -12 26 -28 47 -43 47 -35 1 4 9 -1
18 -13 10 -11 25 -20 35 -18 9 1 15 -1 13 -4 -2 -4 2 -13 10 -20 9 -8 14 -9
14 -2 0 6 11 0 23 -14 13 -14 27 -23 30 -19 4 3 7 1 7 -5 0 -7 7 -12 15 -12 9
0 18 -7 21 -15 4 -8 10 -13 14 -10 4 3 11 -2 14 -11 4 -9 9 -14 13 -11 3 4 14
-3 24 -15 11 -11 19 -18 19 -13 0 4 6 2 13 -4 8 -6 17 -7 21 -3 4 4 6 0 4 -8
-2 -8 3 -14 10 -12 6 1 12 -4 12 -12 0 -10 8 -13 21 -11 12 3 19 2 16 -2 -9
-9 19 -33 39 -33 10 0 14 -3 11 -7 -4 -4 7 -13 24 -20 19 -8 28 -17 23 -24 -4
-7 -3 -9 3 -6 6 4 29 -6 51 -23 22 -16 43 -26 46 -23 3 4 6 -2 6 -13 0 -16 2
-17 10 -4 8 13 10 12 10 -2 0 -10 6 -18 14 -18 8 0 16 -4 18 -9 2 -5 10 -11
18 -13 8 -2 23 -12 33 -23 10 -11 15 -14 11 -6 -5 9 -3 12 4 7 7 -4 12 -14 12
-22 0 -8 5 -12 11 -9 5 4 18 -2 28 -14 10 -11 21 -18 25 -14 3 3 6 2 6 -3 0
-5 20 -20 45 -34 25 -14 45 -28 45 -32 0 -5 7 -8 15 -8 8 0 15 -4 15 -10 0
-18 52 -6 78 19 15 14 29 25 32 25 3 1 4 5 2 9 -1 5 2 6 7 3 5 -4 13 -1 16 5
4 5 13 8 21 5 8 -3 13 -2 11 2 -1 4 8 17 21 30 12 12 22 18 22 12 0 -5 11 1
24 14 14 12 41 31 60 41 20 11 36 26 36 35 0 13 1 13 10 0 8 -13 10 -12 10 3
0 10 4 16 10 12 5 -3 21 5 35 17 15 13 32 23 38 23 7 1 11 7 9 14 -2 8 3 11
11 8 8 -3 20 3 28 14 7 10 19 19 26 19 7 0 13 5 13 12 0 6 3 8 7 5 3 -4 12 2
20 13 8 11 21 20 29 20 8 0 14 5 14 10 0 6 3 9 8 8 15 -3 42 15 35 25 -3 5 -1
7 5 3 6 -3 18 1 26 10 9 8 16 12 16 8 0 -4 6 0 13 11 9 11 19 15 27 10 9 -5
11 -4 6 3 -4 7 -1 12 9 12 9 0 14 4 10 9 -3 5 5 13 17 17 12 3 28 13 36 20 7
8 18 12 23 8 5 -3 8 0 7 7 -2 7 2 13 9 14 6 0 22 9 35 20 13 11 28 23 33 25 6
3 9 8 8 12 -2 4 4 5 12 2 8 -4 17 1 21 10 3 9 10 13 15 10 5 -3 12 2 15 11 4
9 13 14 21 11 8 -3 11 -2 8 3 -3 5 4 12 15 16 11 3 20 11 20 16 0 5 7 9 15 9
7 0 18 8 24 17 5 10 13 15 17 11 4 -4 15 2 25 14 11 11 19 18 19 14 0 -4 10 2
22 14 12 11 27 20 33 20 6 0 18 9 28 20 9 11 24 20 32 20 8 0 15 4 15 9 0 5 9
13 20 16 11 4 17 11 14 17 -5 7 -1 9 9 5 11 -4 20 1 27 14 6 11 15 17 19 14 5
-2 21 8 37 23 15 15 24 20 20 12 -4 -9 -2 -8 7 3 8 9 19 17 26 17 6 0 11 5 11
10 0 6 7 10 15 10 8 0 15 5 15 10 0 6 4 9 9 8 5 -2 17 6 26 17 9 11 14 13 10
5 -4 -8 2 -6 12 6 10 11 24 19 31 16 7 -2 11 2 10 10 -2 7 3 12 10 10 6 -1 12
3 12 9 0 5 5 7 10 4 7 -4 10 180 10 544 0 405 -3 552 -12 557 -7 5 -8 3 -3 -6
5 -9 4 -11 -3 -6 -7 4 -12 14 -12 22 0 8 -4 12 -10 9 -5 -3 -10 -1 -10 6 0 7
-3 10 -6 6 -4 -3 -12 -1 -20 6 -31 28 -44 37 -51 37 -4 0 -21 11 -37 25 -16
13 -33 22 -37 19 -5 -3 -9 2 -9 11 0 9 -4 13 -10 10 -5 -3 -10 -1 -10 5 0 6
-4 9 -9 6 -5 -3 -11 1 -15 9 -3 8 -10 15 -15 15 -18 0 -80 47 -73 55 4 5 -1 6
-10 2 -9 -3 -19 0 -22 9 -3 8 -10 14 -16 14 -6 0 -18 7 -27 15 -8 8 -20 12
-26 8 -6 -4 -8 0 -4 10 3 9 3 16 -1 16 -17 -2 -51 14 -46 22 3 5 -2 9 -11 9
-9 0 -23 6 -30 13 -34 29 -45 37 -45 31 0 -4 -9 3 -19 15 -11 12 -22 22 -25
22 -20 -3 -26 1 -26 15 0 8 -4 13 -9 9 -5 -3 -17 2 -25 11 -9 8 -16 12 -16 7
0 -4 -5 0 -11 10 -6 9 -14 15 -19 12 -5 -3 -12 4 -15 15 -6 18 -9 19 -23 8
-12 -10 -14 -10 -8 0 12 20 -12 13 -35 -10 -12 -13 -19 -16 -15 -8 4 8 -5 2
-19 -15 -15 -16 -24 -24 -20 -17 6 11 3 11 -14 0 -12 -7 -21 -16 -21 -21 0 -4
-4 -5 -10 -2 -5 3 -10 -1 -10 -9 0 -9 -3 -15 -7 -15 -20 3 -44 -2 -40 -8 6
-10 -13 -27 -33 -31 -8 -2 -16 -8 -18 -13 -2 -5 -10 -9 -18 -9 -8 0 -14 -5
-14 -12 0 -6 -3 -8 -7 -5 -3 4 -12 -2 -20 -13 -8 -11 -23 -20 -34 -20 -11 0
-17 -4 -14 -10 3 -5 -1 -10 -9 -10 -9 0 -16 -5 -16 -11 0 -5 -4 -8 -9 -5 -5 3
-12 -1 -15 -10 -3 -8 -10 -12 -16 -9 -5 3 -10 2 -10 -4 0 -6 -16 -17 -35 -26
-19 -9 -45 -27 -59 -40 -14 -13 -27 -20 -30 -17 -3 3 -6 0 -6 -6 0 -7 -6 -12
-14 -12 -8 0 -24 -11 -37 -25 -13 -13 -32 -25 -42 -25 -10 0 -15 -4 -12 -10 3
-5 0 -10 -8 -10 -8 0 -20 -7 -27 -15 -7 -8 -16 -13 -20 -10 -4 3 -11 -2 -14
-11 -3 -8 -10 -13 -15 -10 -5 3 -11 -1 -15 -9 -3 -8 -12 -15 -21 -15 -8 0 -15
-4 -15 -8 0 -5 -11 -14 -25 -20 -14 -6 -25 -7 -25 -2 0 5 -18 19 -40 31 -22
13 -40 26 -40 31 0 4 -7 8 -16 8 -9 0 -12 5 -8 12 4 7 3 8 -5 4 -6 -4 -18 -1
-26 6 -33 30 -45 38 -45 32 0 -4 -9 3 -19 15 -11 13 -24 20 -29 17 -4 -3 -15
4 -22 15 -8 10 -20 19 -27 19 -7 0 -13 5 -13 10 0 6 -7 10 -16 10 -9 0 -12 5
-8 12 4 6 3 8 -3 5 -6 -4 -23 5 -39 18 -16 14 -35 25 -41 25 -7 0 -13 5 -13
10 0 6 -7 10 -15 10 -7 0 -19 8 -24 18 -6 9 -11 13 -11 8 0 -5 -8 1 -19 12
-10 12 -21 19 -25 15 -3 -3 -6 -1 -6 6 0 7 -6 11 -12 8 -7 -2 -25 9 -39 24
-15 16 -29 26 -31 24 -3 -3 -16 5 -30 17 -14 13 -31 24 -37 26 -7 1 -22 11
-34 22 -11 11 -25 20 -29 20 -5 0 -6 4 -3 10 3 6 -1 7 -9 4 -9 -4 -18 0 -22 9
-3 9 -12 13 -20 10 -8 -3 -14 1 -14 9 0 21 -35 19 -48 -3z"/>
</g>
</svg>
